<svg width="15" height="18" viewBox="0 0 15 18" fill="none" xmlns="http://www.w3.org/2000/svg">
<path d="M4.56522 8.36002C3.70038 8.36002 2.87096 8.01646 2.25943 7.40493C1.6479 6.7934 1.30435 5.96399 1.30435 5.09915V2.49046C1.30435 2.31749 1.37306 2.15161 1.49536 2.0293C1.61767 1.90699 1.78355 1.83828 1.95652 1.83828H2.60869C2.78166 1.83828 2.94754 1.76957 3.06985 1.64727C3.19216 1.52496 3.26087 1.35908 3.26087 1.18611C3.26087 1.01314 3.19216 0.847259 3.06985 0.724953C2.94754 0.602646 2.78166 0.533936 2.60869 0.533936H1.95652C1.43762 0.533936 0.939971 0.740068 0.573052 1.10699C0.206133 1.47391 0 1.97155 0 2.49046V5.09915C0.000838317 5.83594 0.180503 6.56151 0.523565 7.21355C0.866626 7.86559 1.36283 8.42462 1.96956 8.84263C2.5525 9.35656 3.02524 9.98328 3.35927 10.685C3.6933 11.3866 3.88168 12.1487 3.91304 12.9252C3.91304 14.136 4.39402 15.2972 5.25016 16.1533C6.10631 17.0095 7.26749 17.4904 8.47826 17.4904C9.68903 17.4904 10.8502 17.0095 11.7064 16.1533C12.5625 15.2972 13.0435 14.136 13.0435 12.9252V12.1818C13.6582 12.023 14.194 11.6455 14.5504 11.12C14.9067 10.5945 15.0592 9.95707 14.9792 9.32719C14.8992 8.69731 14.5922 8.11824 14.1158 7.6985C13.6394 7.27877 13.0262 7.0472 12.3913 7.0472C11.7564 7.0472 11.1432 7.27877 10.6668 7.6985C10.1904 8.11824 9.8834 8.69731 9.8034 9.32719C9.72339 9.95707 9.87586 10.5945 10.2322 11.12C10.5886 11.6455 11.1243 12.023 11.7391 12.1818V12.9252C11.7391 13.7901 11.3956 14.6195 10.784 15.231C10.1725 15.8425 9.34309 16.1861 8.47826 16.1861C7.61342 16.1861 6.78401 15.8425 6.17248 15.231C5.56094 14.6195 5.21739 13.7901 5.21739 12.9252C5.2504 12.1478 5.44082 11.3851 5.77712 10.6834C6.11341 9.98162 6.5886 9.35541 7.17391 8.84263C7.77823 8.42317 8.2719 7.86351 8.61264 7.21155C8.95338 6.5596 9.13105 5.83478 9.13043 5.09915V2.49046C9.13043 1.97155 8.9243 1.47391 8.55738 1.10699C8.19046 0.740068 7.69281 0.533936 7.17391 0.533936H6.52174C6.34877 0.533936 6.18289 0.602646 6.06058 0.724953C5.93827 0.847259 5.86956 1.01314 5.86956 1.18611C5.86956 1.35908 5.93827 1.52496 6.06058 1.64727C6.18289 1.76957 6.34877 1.83828 6.52174 1.83828H7.17391C7.34688 1.83828 7.51276 1.90699 7.63507 2.0293C7.75737 2.15161 7.82608 2.31749 7.82608 2.49046V5.09915C7.82608 5.52737 7.74174 5.9514 7.57787 6.34703C7.41399 6.74266 7.1738 7.10213 6.871 7.40493C6.5682 7.70773 6.20872 7.94793 5.8131 8.1118C5.41747 8.27567 4.99344 8.36002 4.56522 8.36002ZM12.3913 10.9687C12.0454 10.9687 11.7136 10.8313 11.469 10.5867C11.2244 10.3421 11.087 10.0103 11.087 9.66437C11.087 9.31843 11.2244 8.98667 11.469 8.74205C11.7136 8.49744 12.0454 8.36002 12.3913 8.36002C12.7372 8.36002 13.069 8.49744 13.3136 8.74205C13.5582 8.98667 13.6956 9.31843 13.6956 9.66437C13.6956 10.0103 13.5582 10.3421 13.3136 10.5867C13.069 10.8313 12.7372 10.9687 12.3913 10.9687Z" fill="#109AE8"/>
</svg>
