<svg width="16" height="15" viewBox="0 0 16 15" fill="none" xmlns="http://www.w3.org/2000/svg">
<path d="M8 0C12.1423 0 15.5 3.35775 15.5 7.5C15.5 11.6423 12.1423 15 8 15C3.85775 15 0.5 11.6423 0.5 7.5C0.5 3.35775 3.85775 0 8 0ZM6.40925 4.848C6.27459 4.71206 6.09307 4.63273 5.90184 4.62624C5.71061 4.61975 5.52412 4.6866 5.38056 4.8131C5.237 4.9396 5.14722 5.11619 5.1296 5.30672C5.11197 5.49725 5.16783 5.68731 5.28575 5.838L5.34875 5.90925L6.93875 7.49925L5.34875 9.09075C5.21281 9.22541 5.13348 9.40693 5.12699 9.59816C5.1205 9.78939 5.18735 9.97587 5.31385 10.1194C5.44035 10.263 5.61694 10.3528 5.80747 10.3704C5.998 10.388 6.18806 10.3322 6.33875 10.2143L6.40925 10.152L8 8.5605L9.59075 10.152C9.72541 10.2879 9.90693 10.3673 10.0982 10.3738C10.2894 10.3802 10.4759 10.3134 10.6194 10.1869C10.763 10.0604 10.8528 9.88381 10.8704 9.69328C10.888 9.50275 10.8322 9.31269 10.7143 9.162L10.652 9.09075L9.0605 7.5L10.652 5.90925C10.7879 5.77459 10.8673 5.59307 10.8738 5.40184C10.8802 5.21061 10.8134 5.02412 10.6869 4.88056C10.5604 4.737 10.3838 4.64722 10.1933 4.6296C10.0028 4.61197 9.81269 4.66783 9.662 4.78575L9.59075 4.848L8 6.4395L6.40925 4.848Z" fill="#F94359"/>
</svg>
