<svg width="18" height="17" viewBox="0 0 18 17" fill="none" xmlns="http://www.w3.org/2000/svg">
<path d="M15.2505 5.99999C15.2505 5.81457 15.3055 5.63331 15.4085 5.47914C15.5116 5.32497 15.658 5.20481 15.8293 5.13385C16.0006 5.06289 16.1891 5.04433 16.3709 5.0805C16.5528 5.11667 16.7198 5.20596 16.851 5.33707C16.9821 5.46819 17.0714 5.63523 17.1075 5.81709C17.1437 5.99895 17.1251 6.18745 17.0542 6.35875C16.9832 6.53006 16.8631 6.67648 16.7089 6.77949C16.5547 6.8825 16.3735 6.93749 16.188 6.93749C15.9394 6.93749 15.7009 6.83872 15.5251 6.6629C15.3493 6.48708 15.2505 6.24863 15.2505 5.99999ZM14.313 4.12499C14.4985 4.12499 14.6797 4.07 14.8339 3.96699C14.9881 3.86398 15.1082 3.71756 15.1792 3.54625C15.2501 3.37495 15.2687 3.18645 15.2325 3.00459C15.1964 2.82273 15.1071 2.65569 14.976 2.52457C14.8448 2.39346 14.6778 2.30417 14.4959 2.268C14.3141 2.23183 14.1256 2.25039 13.9543 2.32135C13.783 2.39231 13.6366 2.51247 13.5335 2.66664C13.4305 2.82081 13.3755 3.00207 13.3755 3.18749C13.3755 3.43613 13.4743 3.67458 13.6501 3.8504C13.8259 4.02622 14.0644 4.12499 14.313 4.12499ZM16.5521 8.49999C16.387 8.48637 16.2232 8.53888 16.0968 8.64597C15.9703 8.75306 15.8916 8.90596 15.8779 9.07108C15.766 10.3777 15.2833 11.6252 14.4865 12.6667C13.6898 13.7083 12.6121 14.5007 11.3803 14.9505C10.1485 15.4004 8.81378 15.4891 7.53328 15.2061C6.25278 14.9232 5.07972 14.2804 4.15214 13.3534C3.22456 12.4264 2.58104 11.2538 2.2973 9.97346C2.01356 8.69313 2.1014 7.3584 2.5505 6.12631C2.99959 4.89422 3.79124 3.81602 4.83232 3.01859C5.87339 2.22116 7.12057 1.73766 8.42711 1.62499C8.50918 1.61822 8.58912 1.59534 8.66236 1.55768C8.7356 1.52001 8.8007 1.46829 8.85395 1.40547C8.90719 1.34264 8.94755 1.26995 8.9727 1.19153C8.99785 1.11311 9.00732 1.0305 9.00054 0.948425C8.99377 0.866348 8.9709 0.78641 8.93324 0.713172C8.89557 0.639935 8.84385 0.574834 8.78103 0.521585C8.7182 0.468337 8.6455 0.427984 8.56708 0.40283C8.48866 0.377677 8.40606 0.368216 8.32398 0.374987C6.78025 0.507773 5.30656 1.07869 4.07628 2.02058C2.846 2.96246 1.91032 4.23613 1.37932 5.69173C0.848318 7.14733 0.744089 8.72431 1.07889 10.2371C1.4137 11.75 2.17361 13.1357 3.26922 14.2313C4.36484 15.3269 5.75057 16.0868 7.2634 16.4216C8.77622 16.7564 10.3532 16.6522 11.8088 16.1212C13.2644 15.5902 14.5381 14.6545 15.48 13.4243C16.4218 12.194 16.9928 10.7203 17.1255 9.17655C17.1326 9.09442 17.1233 9.0117 17.0983 8.93316C17.0733 8.85463 17.0329 8.78182 16.9796 8.71893C16.9263 8.65605 16.8611 8.60433 16.7877 8.56675C16.7144 8.52918 16.6343 8.50648 16.5521 8.49999ZM9.00054 2.87499C10.1131 2.87499 11.2006 3.20489 12.1256 3.82297C13.0507 4.44105 13.7716 5.31956 14.1974 6.34739C14.6231 7.37523 14.7345 8.50623 14.5175 9.59737C14.3004 10.6885 13.7647 11.6908 12.978 12.4775C12.1913 13.2641 11.1891 13.7999 10.0979 14.0169C9.00678 14.2339 7.87578 14.1226 6.84795 13.6968C5.82012 13.2711 4.94161 12.5501 4.32353 11.6251C3.70544 10.7 3.37554 9.61251 3.37554 8.49999C3.3772 7.00865 3.97036 5.57887 5.0249 4.52434C6.07943 3.46981 7.50921 2.87664 9.00054 2.87499ZM8.37554 8.49999C8.37554 8.66575 8.44139 8.82472 8.5586 8.94193C8.67581 9.05914 8.83478 9.12499 9.00054 9.12499H12.7505C12.9163 9.12499 13.0753 9.05914 13.1925 8.94193C13.3097 8.82472 13.3755 8.66575 13.3755 8.49999C13.3755 8.33423 13.3097 8.17526 13.1925 8.05805C13.0753 7.94083 12.9163 7.87499 12.7505 7.87499H9.62554V4.74999C9.62554 4.58423 9.5597 4.42526 9.44249 4.30805C9.32528 4.19084 9.1663 4.12499 9.00054 4.12499C8.83478 4.12499 8.67581 4.19084 8.5586 4.30805C8.44139 4.42526 8.37554 4.58423 8.37554 4.74999V8.49999ZM11.5005 2.24999C11.686 2.24999 11.8672 2.195 12.0214 2.09199C12.1756 1.98898 12.2957 1.84256 12.3667 1.67125C12.4376 1.49995 12.4562 1.31145 12.42 1.12959C12.3839 0.947733 12.2946 0.780686 12.1635 0.649575C12.0323 0.518463 11.8653 0.429175 11.6834 0.393001C11.5016 0.356827 11.3131 0.375393 11.1418 0.44635C10.9705 0.517307 10.8241 0.637469 10.721 0.79164C10.618 0.945811 10.563 1.12707 10.563 1.31249C10.563 1.56113 10.6618 1.79958 10.8376 1.9754C11.0134 2.15122 11.2519 2.24999 11.5005 2.24999Z" fill="#FCA31F"/>
</svg>
