<svg width="20" height="20" viewBox="0 0 20 20" fill="none" xmlns="http://www.w3.org/2000/svg">
<g clip-path="url(#clip0_2239_4958)">
<path fill-rule="evenodd" clip-rule="evenodd" d="M9.98143 2.14313C9.38424 2.13234 8.79078 2.23943 8.23502 2.45826C7.67926 2.67709 7.17211 3.00337 6.74259 3.41843C6.31308 3.83348 5.96962 4.32916 5.73189 4.8771C5.49416 5.42505 5.36681 6.01449 5.35714 6.6117V12.8574C5.35714 13.2363 5.20663 13.5997 4.93872 13.8676C4.67081 14.1355 4.30745 14.286 3.92857 14.286H2.14286C1.57454 14.286 1.02949 14.0602 0.627628 13.6584C0.225765 13.2565 0 12.7114 0 12.1431L0 9.28598C0 8.71766 0.225765 8.17262 0.627628 7.77076C1.02949 7.36889 1.57454 7.14313 2.14286 7.14313H3.21429V6.58599C3.22732 5.70798 3.41319 4.84113 3.76128 4.03497C4.10936 3.2288 4.61285 2.4991 5.24298 1.88754C5.87311 1.27598 6.61755 0.794541 7.43376 0.47072C8.24998 0.1469 9.12199 -0.0129601 10 0.000270738C10.878 -0.0129601 11.75 0.1469 12.5662 0.47072C13.3825 0.794541 14.1269 1.27598 14.757 1.88754C15.3872 2.4991 15.8906 3.2288 16.2387 4.03497C16.5868 4.84113 16.7727 5.70798 16.7857 6.58599V7.14313H17.8571C18.4255 7.14313 18.9705 7.36889 19.3724 7.77076C19.7742 8.17262 20 8.71766 20 9.28598V12.1431C20 12.7114 19.7742 13.2565 19.3724 13.6584C18.9705 14.0602 18.4255 14.286 17.8571 14.286H16.7857V15.0003C16.7859 15.9656 16.4306 16.8973 15.7877 17.6174C15.1448 18.3375 14.2592 18.7957 13.3 18.9046C13.1137 19.2371 12.8421 19.514 12.5131 19.7066C12.1842 19.8992 11.8098 20.0006 11.4286 20.0003H9.28571C8.71739 20.0003 8.17235 19.7745 7.77049 19.3726C7.36862 18.9708 7.14286 18.4257 7.14286 17.8574C7.14286 17.2891 7.36862 16.744 7.77049 16.3422C8.17235 15.9403 8.71739 15.7146 9.28571 15.7146H11.4286C12.2029 15.7146 12.8814 16.1246 13.2571 16.7403C13.6509 16.6498 14.0023 16.4284 14.254 16.1124C14.5057 15.7963 14.6428 15.4043 14.6429 15.0003V6.61027C14.6331 6.00998 14.5044 5.41759 14.2642 4.86735C14.0241 4.3171 13.6773 3.81991 13.2438 3.40451C12.8104 2.98912 12.2989 2.66376 11.7389 2.44725C11.1789 2.23075 10.5816 2.12738 9.98143 2.14313Z" fill="#3F40E1"/>
</g>
<defs>
<clipPath id="clip0_2239_4958">
<rect width="20" height="20" fill="white"/>
</clipPath>
</defs>
</svg>
