<svg width="17" height="18" viewBox="0 0 17 18" fill="none" xmlns="http://www.w3.org/2000/svg">
<path d="M6.25 14.9905H4C3.20435 14.9905 2.44129 14.6744 1.87868 14.1118C1.31607 13.5492 1 12.7861 1 11.9905V5.24048C1 4.44483 1.31607 3.68177 1.87868 3.11916C2.44129 2.55655 3.20435 2.24048 4 2.24048H12.25C13.0456 2.24048 13.8087 2.55655 14.3713 3.11916C14.9339 3.68177 15.25 4.44483 15.25 5.24048V7.49048M5.5 1.49048V2.99048M10.75 1.49048V2.99048M1 5.99048H15.25M13.375 11.7227L12.25 12.8477" stroke="#109AE8" stroke-width="1.4" stroke-linecap="round" stroke-linejoin="round"/>
<path d="M12.25 16.4905C14.3211 16.4905 16 14.8115 16 12.7405C16 10.6694 14.3211 8.99048 12.25 8.99048C10.1789 8.99048 8.5 10.6694 8.5 12.7405C8.5 14.8115 10.1789 16.4905 12.25 16.4905Z" stroke="#109AE8" stroke-width="1.4" stroke-linecap="round" stroke-linejoin="round"/>
</svg>
