<svg width="16" height="16" viewBox="0 0 16 16" fill="none" xmlns="http://www.w3.org/2000/svg">
<path d="M8 9.49048C8.14834 9.49048 8.29334 9.44649 8.41668 9.36408C8.54002 9.28167 8.63614 9.16454 8.69291 9.02749C8.74968 8.89045 8.76453 8.73965 8.73559 8.59416C8.70665 8.44868 8.63522 8.31504 8.53033 8.21015C8.42544 8.10526 8.2918 8.03383 8.14632 8.00489C8.00083 7.97595 7.85003 7.9908 7.71299 8.04757C7.57594 8.10433 7.45881 8.20046 7.3764 8.3238C7.29399 8.44714 7.25 8.59214 7.25 8.74048C7.25 8.93939 7.32902 9.13016 7.46967 9.27081C7.61032 9.41146 7.80109 9.49048 8 9.49048ZM11.75 9.49048C11.8983 9.49048 12.0433 9.44649 12.1667 9.36408C12.29 9.28167 12.3861 9.16454 12.4429 9.02749C12.4997 8.89045 12.5145 8.73965 12.4856 8.59416C12.4566 8.44868 12.3852 8.31504 12.2803 8.21015C12.1754 8.10526 12.0418 8.03383 11.8963 8.00489C11.7508 7.97595 11.6 7.9908 11.463 8.04757C11.3259 8.10433 11.2088 8.20046 11.1264 8.3238C11.044 8.44714 11 8.59214 11 8.74048C11 8.93939 11.079 9.13016 11.2197 9.27081C11.3603 9.41146 11.5511 9.49048 11.75 9.49048ZM8 12.4905C8.14834 12.4905 8.29334 12.4465 8.41668 12.3641C8.54002 12.2817 8.63614 12.1645 8.69291 12.0275C8.74968 11.8904 8.76453 11.7396 8.73559 11.5942C8.70665 11.4487 8.63522 11.315 8.53033 11.2101C8.42544 11.1053 8.2918 11.0338 8.14632 11.0049C8.00083 10.976 7.85003 10.9908 7.71299 11.0476C7.57594 11.1043 7.45881 11.2005 7.3764 11.3238C7.29399 11.4471 7.25 11.5921 7.25 11.7405C7.25 11.9394 7.32902 12.1302 7.46967 12.2708C7.61032 12.4115 7.80109 12.4905 8 12.4905ZM11.75 12.4905C11.8983 12.4905 12.0433 12.4465 12.1667 12.3641C12.29 12.2817 12.3861 12.1645 12.4429 12.0275C12.4997 11.8904 12.5145 11.7396 12.4856 11.5942C12.4566 11.4487 12.3852 11.315 12.2803 11.2101C12.1754 11.1053 12.0418 11.0338 11.8963 11.0049C11.7508 10.976 11.6 10.9908 11.463 11.0476C11.3259 11.1043 11.2088 11.2005 11.1264 11.3238C11.044 11.4471 11 11.5921 11 11.7405C11 11.9394 11.079 12.1302 11.2197 12.2708C11.3603 12.4115 11.5511 12.4905 11.75 12.4905ZM4.25 9.49048C4.39834 9.49048 4.54334 9.44649 4.66668 9.36408C4.79001 9.28167 4.88614 9.16454 4.94291 9.02749C4.99968 8.89045 5.01453 8.73965 4.98559 8.59416C4.95665 8.44868 4.88522 8.31504 4.78033 8.21015C4.67544 8.10526 4.5418 8.03383 4.39632 8.00489C4.25083 7.97595 4.10003 7.9908 3.96299 8.04757C3.82594 8.10433 3.70881 8.20046 3.6264 8.3238C3.54399 8.44714 3.5 8.59214 3.5 8.74048C3.5 8.93939 3.57902 9.13016 3.71967 9.27081C3.86032 9.41146 4.05109 9.49048 4.25 9.49048ZM13.25 1.99048H12.5V1.24048C12.5 1.04157 12.421 0.850801 12.2803 0.710148C12.1397 0.569496 11.9489 0.490479 11.75 0.490479C11.5511 0.490479 11.3603 0.569496 11.2197 0.710148C11.079 0.850801 11 1.04157 11 1.24048V1.99048H5V1.24048C5 1.04157 4.92098 0.850801 4.78033 0.710148C4.63968 0.569496 4.44891 0.490479 4.25 0.490479C4.05109 0.490479 3.86032 0.569496 3.71967 0.710148C3.57902 0.850801 3.5 1.04157 3.5 1.24048V1.99048H2.75C2.15326 1.99048 1.58097 2.22753 1.15901 2.64949C0.737053 3.07145 0.5 3.64374 0.5 4.24048V13.2405C0.5 13.8372 0.737053 14.4095 1.15901 14.8315C1.58097 15.2534 2.15326 15.4905 2.75 15.4905H13.25C13.8467 15.4905 14.419 15.2534 14.841 14.8315C15.2629 14.4095 15.5 13.8372 15.5 13.2405V4.24048C15.5 3.64374 15.2629 3.07145 14.841 2.64949C14.419 2.22753 13.8467 1.99048 13.25 1.99048ZM14 13.2405C14 13.4394 13.921 13.6302 13.7803 13.7708C13.6397 13.9115 13.4489 13.9905 13.25 13.9905H2.75C2.55109 13.9905 2.36032 13.9115 2.21967 13.7708C2.07902 13.6302 2 13.4394 2 13.2405V6.49048H14V13.2405ZM14 4.99048H2V4.24048C2 4.04157 2.07902 3.8508 2.21967 3.71015C2.36032 3.5695 2.55109 3.49048 2.75 3.49048H13.25C13.4489 3.49048 13.6397 3.5695 13.7803 3.71015C13.921 3.8508 14 4.04157 14 4.24048V4.99048ZM4.25 12.4905C4.39834 12.4905 4.54334 12.4465 4.66668 12.3641C4.79001 12.2817 4.88614 12.1645 4.94291 12.0275C4.99968 11.8904 5.01453 11.7396 4.98559 11.5942C4.95665 11.4487 4.88522 11.315 4.78033 11.2101C4.67544 11.1053 4.5418 11.0338 4.39632 11.0049C4.25083 10.976 4.10003 10.9908 3.96299 11.0476C3.82594 11.1043 3.70881 11.2005 3.6264 11.3238C3.54399 11.4471 3.5 11.5921 3.5 11.7405C3.5 11.9394 3.57902 12.1302 3.71967 12.2708C3.86032 12.4115 4.05109 12.4905 4.25 12.4905Z" fill="white"/>
</svg>
