<svg width="19" height="18" viewBox="0 0 19 18" fill="none" xmlns="http://www.w3.org/2000/svg">
<g clip-path="url(#clip0_2063_1638)">
<path d="M6.09711 6.07352L6.21711 6.06452C6.26056 6.06032 6.30211 6.04665 6.33796 6.02477L6.33711 6.02552C6.45196 6.37202 6.59253 6.73652 6.76825 7.11827C6.99368 7.61777 7.21568 8.02802 7.46425 8.42402L7.42996 8.36402C7.40939 8.63702 7.38453 8.91752 7.35196 9.18902C7.33769 9.34919 7.30055 9.50717 7.24139 9.65927L7.24568 9.64577C7.23539 9.64952 7.22082 11.2058 7.22082 11.2058C7.22114 11.6886 7.40713 12.1574 7.74888 12.5365C8.09062 12.9157 8.56823 13.1832 9.10482 13.296L9.12196 13.299C9.14579 13.2449 9.18776 13.1983 9.24236 13.1654C9.29696 13.1324 9.36165 13.1147 9.42796 13.1145H9.91996C9.98567 13.1153 10.0497 13.133 10.1039 13.1654C10.1582 13.1978 10.2003 13.2435 10.2251 13.2968L10.226 13.299C10.7671 13.1896 11.2502 12.9235 11.5969 12.5438C11.9437 12.1642 12.1338 11.6932 12.1365 11.2073C12.1365 11.2073 12.1065 9.65702 12.0911 9.64652C12.04 9.50155 12.005 9.35261 11.9865 9.20177L11.9857 9.19052C11.9557 8.91752 11.936 8.64377 11.9077 8.36552C12.1194 8.03102 12.3414 7.62152 12.5368 7.19927L12.5694 7.11977C12.7451 6.73802 12.8814 6.37427 13.0005 6.02702C13.0358 6.0489 13.0768 6.06257 13.1197 6.06677H13.1205L13.2414 6.07577C13.3871 6.08927 13.5157 5.98427 13.5277 5.82152L13.658 4.37327V4.37177C13.6579 4.31349 13.6336 4.25722 13.5896 4.21348C13.5456 4.16973 13.4849 4.14148 13.4188 4.13402H13.4025C13.5167 3.37988 13.446 2.61313 13.1951 1.88477L13.2062 1.92302C12.9645 1.45331 12.5968 1.04156 12.1344 0.722718C11.6719 0.403877 11.1284 0.187352 10.55 0.0915166L10.5277 0.0885166C10.2472 0.0393151 9.96247 0.0112125 9.67653 0.0045166H9.65853C9.35942 0.00920343 9.0615 0.0388376 8.76882 0.0930166L8.79968 0.0885166C8.22152 0.182417 7.67748 0.396135 7.2131 0.711782C6.74872 1.02743 6.3775 1.43582 6.13053 1.90277L6.12111 1.92302C5.87433 2.64857 5.80856 3.41204 5.92825 4.16177L5.92482 4.13402C5.85859 4.14029 5.79732 4.1677 5.75273 4.211C5.70814 4.25431 5.68335 4.31048 5.68311 4.36877V4.37402L5.81339 5.82227C5.82539 5.98877 5.95568 6.08927 6.09625 6.07577L6.09711 6.07352Z" fill="#A6ACBB"/>
<path d="M18.8563 15.6585C18.7963 13.3785 18.5357 12.8625 18.3952 12.513C18.3394 12.3728 18.294 11.4248 16.5043 10.8098C15.4072 10.4318 13.9912 10.4243 12.7929 9.98101V11.214C12.7916 11.8461 12.5392 12.4582 12.0788 12.9453C11.6184 13.4324 10.9788 13.7643 10.2694 13.884L10.2497 13.887C10.2369 13.9535 10.1978 14.014 10.1392 14.0579C10.0806 14.1017 10.0063 14.1262 9.92916 14.127H9.91373V15.057C9.91373 15.4934 10.1119 15.912 10.4645 16.2206C10.8172 16.5291 11.2955 16.7025 11.7943 16.7025C12.2931 16.7025 12.7714 16.5291 13.1241 16.2206C13.4767 15.912 13.6749 15.4934 13.6749 15.057V14.4075C13.416 14.3743 13.18 14.2592 13.0116 14.0841C12.8431 13.9089 12.7539 13.6858 12.7607 13.4569C12.7676 13.2281 12.87 13.0094 13.0487 12.8421C13.2274 12.6749 13.47 12.5708 13.7305 12.5495C13.9909 12.5282 14.2513 12.5911 14.4624 12.7264C14.6734 12.8618 14.8205 13.0601 14.8757 13.2838C14.9309 13.5076 14.8905 13.7413 14.7621 13.9408C14.6337 14.1402 14.4262 14.2916 14.1789 14.3663L14.1712 14.3685V15.0923C14.1712 15.644 13.9206 16.1732 13.4747 16.5634C13.0288 16.9536 12.4241 17.1728 11.7934 17.1728C11.1628 17.1728 10.5581 16.9536 10.1121 16.5634C9.66624 16.1732 9.41573 15.644 9.41573 15.0923V15.0548V15.0563V14.118C9.34233 14.1136 9.27277 14.0877 9.21832 14.0444C9.16387 14.0011 9.12772 13.943 9.11573 13.8795V13.878C8.40562 13.7595 7.7647 13.4286 7.30277 12.9421C6.84084 12.4555 6.58664 11.8436 6.58373 11.211V9.96826C5.3803 10.4205 3.95573 10.4295 2.85259 10.8083C1.05773 11.4225 1.01659 12.3683 0.961729 12.5108C0.824586 12.8618 0.560586 13.3755 0.500586 15.657C0.4903 15.957 0.500586 16.4168 1.5343 16.8188C3.78516 17.5913 6.68487 17.8313 9.54344 18.0038H9.81773C12.6823 17.8328 15.5777 17.5935 17.8269 16.8188C18.8563 16.419 18.8657 15.9615 18.8563 15.6585ZM6.27259 14.7285H5.20459V15.6668H4.44173V14.7315H3.37373V14.064H4.44173V13.1295H5.20459V14.064H6.27259V14.7285Z" fill="#A6ACBB"/>
<path d="M14.4071 13.4738C14.407 13.3399 14.3462 13.2109 14.2379 13.1163C14.1297 13.0217 13.983 12.9686 13.8301 12.9686C13.6771 12.9687 13.5304 13.0219 13.4223 13.1165C13.3142 13.2112 13.2534 13.3395 13.2534 13.4734C13.2534 13.6072 13.3142 13.7356 13.4223 13.8302C13.5304 13.9249 13.6771 13.9781 13.8301 13.9781C13.983 13.9782 14.1297 13.9251 14.2379 13.8305C14.3462 13.7359 14.407 13.6076 14.4071 13.4738Z" fill="#A6ACBB"/>
</g>
<defs>
<clipPath id="clip0_2063_1638">
<rect width="18" height="18" fill="white" transform="translate(0.5)"/>
</clipPath>
</defs>
</svg>
