<svg width="18" height="19" viewBox="0 0 18 19" fill="none" xmlns="http://www.w3.org/2000/svg">
<path fill-rule="evenodd" clip-rule="evenodd" d="M5.32443 2.15357L5.35193 2.03357C5.40443 1.81057 5.49043 1.48257 5.66793 1.15957C5.84893 0.830566 6.12943 0.497066 6.56943 0.277566C7.00793 0.0590662 7.55743 -0.0224338 8.23693 0.0675662C8.98693 0.167566 10.4934 0.415566 11.8244 1.09257C13.1629 1.77357 14.4169 2.94507 14.4169 4.89607C14.4169 5.90407 14.0269 6.98557 13.6489 7.69057C13.4674 8.02957 13.2519 8.35357 13.0359 8.52807C12.9864 8.56807 12.9159 8.61807 12.8284 8.65307C12.5884 9.44185 12.1106 10.1372 11.4604 10.6442C10.8102 11.1511 10.0193 11.4449 9.19577 11.4853C8.37227 11.5256 7.55639 11.3107 6.85969 10.8698C6.16299 10.4289 5.61947 9.78358 5.30343 9.02207L5.29143 9.02407L5.11393 8.80857L5.11343 8.80757L5.11243 8.80657L5.10993 8.80307L5.10143 8.79307C5.05864 8.73981 5.01746 8.68529 4.97793 8.62957C4.86997 8.47982 4.76821 8.32569 4.67293 8.16757C4.43793 7.77857 4.15443 7.22457 3.97293 6.57807C3.79193 5.93157 3.70893 5.17357 3.89893 4.39157C4.08393 3.63057 4.52043 2.88157 5.31093 2.21257L5.32443 2.15357ZM6.16443 8.47257C6.38129 9.09619 6.79771 9.6309 7.34922 9.9939C7.90072 10.3569 8.55653 10.5279 9.21507 10.4805C9.87361 10.4331 10.4981 10.1698 10.9919 9.7315C11.4857 9.29321 11.8212 8.70433 11.9464 8.05607L12.0029 8.07507C12.0009 8.04678 11.9999 8.01843 11.9999 7.99007C11.9999 7.16257 11.8849 6.58507 11.7779 6.22507C11.757 6.15499 11.7339 6.08562 11.7084 6.01707L11.6879 6.01807H11.6679C11.2941 6.02614 10.9203 5.99767 10.5519 5.93307C9.69343 5.78807 8.53093 5.42607 7.16193 4.58757C7.13193 4.65457 7.10193 4.73007 7.07193 4.81407C6.97393 5.09157 6.89343 5.42107 6.82393 5.76907C6.76243 6.07557 6.71193 6.38407 6.66393 6.67307L6.64543 6.78707C6.59393 7.09707 6.54243 7.40157 6.48243 7.62207C6.37743 8.00507 6.27043 8.27707 6.16443 8.47207M5.46443 7.54057C5.2386 7.15292 5.06127 6.73898 4.93643 6.30807C4.78693 5.77507 4.73193 5.19807 4.87093 4.62757C5.00593 4.07257 5.33243 3.48907 6.00393 2.93607C6.12493 2.85407 6.17993 2.74407 6.19493 2.71457V2.71407C6.22119 2.66001 6.24228 2.60359 6.25793 2.54557C6.27393 2.48857 6.29143 2.41057 6.30793 2.34057L6.32543 2.26207C6.37293 2.06057 6.43443 1.84107 6.54443 1.64057C6.65143 1.44657 6.79793 1.28057 7.01593 1.17207C7.23493 1.06257 7.57393 0.987566 8.10493 1.05857C8.83143 1.15507 10.1979 1.38657 11.3709 1.98357C12.5359 2.57607 13.4169 3.47307 13.4169 4.89557C13.4169 5.55057 13.1969 6.29557 12.9319 6.88307C12.8819 6.50007 12.8099 6.18707 12.7359 5.93907C12.6844 5.76182 12.62 5.58853 12.5434 5.42057C12.5146 5.35832 12.4829 5.29742 12.4484 5.23807L12.4399 5.22457L12.4369 5.21957L12.4354 5.21707L12.4344 5.21557L12.2494 4.92857L11.9184 4.99507L11.9114 4.99657L11.8629 5.00307C11.7885 5.01136 11.7138 5.01636 11.6389 5.01807C11.3307 5.02402 11.0225 4.99991 10.7189 4.94607C9.91243 4.81007 8.72743 4.43957 7.28793 3.48107L6.93793 3.24757L6.64843 3.55257C6.40993 3.80357 6.24793 4.14607 6.12943 4.47957C6.00843 4.82207 5.91693 5.20457 5.84343 5.57157C5.7825 5.88388 5.72715 6.19727 5.67743 6.51157L5.65843 6.62357C5.60493 6.94907 5.56143 7.19757 5.51743 7.35857C5.50102 7.41959 5.48335 7.48027 5.46443 7.54057Z" fill="#3F40E1"/>
<path fill-rule="evenodd" clip-rule="evenodd" d="M5.957 11.9181C5.851 11.7071 5.7205 11.4466 5.5 11.4971C2.798 12.1121 0 13.8876 0 15.7756V18.4906H18V15.7756C18 14.2886 16.264 12.8711 14.2065 12.0356L14.204 12.0306C14.2017 12.0261 14.1994 12.0216 14.197 12.0171L14.1805 12.0251C13.634 11.8051 13.065 11.6251 12.5 11.4971C12.2485 11.4396 11.9885 11.7856 11.875 12.0021H6C5.986 11.9761 5.972 11.9471 5.957 11.9181ZM12.7015 12.5781C12.92 12.6386 13.1375 12.7066 13.352 12.7816C13.358 12.9526 13.345 13.1546 13.317 13.3606C13.2885 13.5739 13.243 13.7845 13.181 13.9906H12.5C12.4072 13.9906 12.3162 14.0165 12.2372 14.0654C12.1583 14.1142 12.0945 14.184 12.053 14.2671L11.553 15.2671C11.5182 15.3365 11.5001 15.413 11.5 15.4906V16.4906C11.5 16.6232 11.5527 16.7504 11.6464 16.8441C11.7402 16.9379 11.8674 16.9906 12 16.9906H13V15.9906H12.5V15.6086L12.809 14.9906H14.191L14.5 15.6086V15.9906H14V16.9906H15C15.1326 16.9906 15.2598 16.9379 15.3536 16.8441C15.4473 16.7504 15.5 16.6232 15.5 16.4906V15.4906C15.4999 15.413 15.4818 15.3365 15.447 15.2671L14.947 14.2671C14.9055 14.184 14.8417 14.1142 14.7628 14.0654C14.6838 14.0165 14.5928 13.9906 14.5 13.9906H14.217C14.2788 13.726 14.3202 13.457 14.341 13.1861C14.8285 13.4166 15.2815 13.6811 15.674 13.9671C16.635 14.6681 17 15.3241 17 15.7756V17.4906H1V15.7756C1 15.3241 1.365 14.6681 2.326 13.9671C2.809 13.6146 3.3855 13.2956 4.0035 13.0316C4.02067 13.43 4.0846 13.8251 4.194 14.2086L4.198 14.2226C3.89908 14.4117 3.67661 14.7003 3.56987 15.0376C3.46313 15.3748 3.47899 15.7389 3.61466 16.0655C3.75033 16.3922 3.99707 16.6604 4.3113 16.8228C4.62554 16.9852 4.98705 17.0313 5.33198 16.953C5.67692 16.8747 5.98309 16.677 6.19642 16.3949C6.40975 16.1127 6.51651 15.7643 6.49785 15.4111C6.47919 15.0579 6.33631 14.7226 6.09443 14.4645C5.85256 14.2064 5.52727 14.0421 5.176 14.0006C5.11211 13.7914 5.06529 13.5773 5.036 13.3606C5.00816 13.1667 4.99662 12.9709 5.0015 12.7751C5.00295 12.7377 5.00545 12.7003 5.009 12.6631C5.069 12.6446 5.129 12.6266 5.189 12.6096L5.3965 13.0026H12.4785L12.7015 12.5781ZM5 15.9986C5.269 15.9986 5.5 15.7786 5.5 15.4911C5.5 15.2041 5.269 14.9836 5 14.9836C4.731 14.9836 4.5 15.2036 4.5 15.4911C4.5 15.7781 4.731 15.9986 5 15.9986Z" fill="#3F40E1"/>
</svg>
