<svg width="12" height="16" viewBox="0 0 12 16" fill="none" xmlns="http://www.w3.org/2000/svg">
<path fill-rule="evenodd" clip-rule="evenodd" d="M7.6875 0.875C7.6875 0.825272 7.66775 0.777581 7.63258 0.742418C7.59742 0.707254 7.54973 0.6875 7.5 0.6875H2.25C1.70299 0.6875 1.17839 0.904799 0.791592 1.29159C0.404798 1.67839 0.1875 2.20299 0.1875 2.75V13.25C0.1875 13.797 0.404798 14.3216 0.791592 14.7084C1.17839 15.0952 1.70299 15.3125 2.25 15.3125H9.75C10.297 15.3125 10.8216 15.0952 11.2084 14.7084C11.5952 14.3216 11.8125 13.797 11.8125 13.25V5.86025C11.8125 5.81052 11.7927 5.76283 11.7576 5.72767C11.7224 5.6925 11.6747 5.67275 11.625 5.67275H8.25C8.10082 5.67275 7.95774 5.61349 7.85225 5.508C7.74676 5.40251 7.6875 5.25943 7.6875 5.11025V0.875ZM8.25 8.1875C8.39918 8.1875 8.54226 8.24676 8.64775 8.35225C8.75324 8.45774 8.8125 8.60082 8.8125 8.75C8.8125 8.89918 8.75324 9.04226 8.64775 9.14775C8.54226 9.25324 8.39918 9.3125 8.25 9.3125H3.75C3.60082 9.3125 3.45774 9.25324 3.35225 9.14775C3.24676 9.04226 3.1875 8.89918 3.1875 8.75C3.1875 8.60082 3.24676 8.45774 3.35225 8.35225C3.45774 8.24676 3.60082 8.1875 3.75 8.1875H8.25ZM8.25 11.1875C8.39918 11.1875 8.54226 11.2468 8.64775 11.3523C8.75324 11.4577 8.8125 11.6008 8.8125 11.75C8.8125 11.8992 8.75324 12.0423 8.64775 12.1477C8.54226 12.2532 8.39918 12.3125 8.25 12.3125H3.75C3.60082 12.3125 3.45774 12.2532 3.35225 12.1477C3.24676 12.0423 3.1875 11.8992 3.1875 11.75C3.1875 11.6008 3.24676 11.4577 3.35225 11.3523C3.45774 11.2468 3.60082 11.1875 3.75 11.1875H8.25Z" fill="#A6ACBB"/>
</svg>
