<svg width="16" height="15" viewBox="0 0 16 15" fill="none" xmlns="http://www.w3.org/2000/svg">
<path d="M8 0C3.86 0 0.5 3.36 0.5 7.5C0.5 11.64 3.86 15 8 15C12.14 15 15.5 11.64 15.5 7.5C15.5 3.36 12.14 0 8 0ZM5.9675 10.7175L3.275 8.025C3.20556 7.95556 3.15048 7.87313 3.1129 7.78241C3.07533 7.69168 3.05598 7.59445 3.05598 7.49625C3.05598 7.39805 3.07533 7.30082 3.1129 7.21009C3.15048 7.11937 3.20556 7.03694 3.275 6.9675C3.34444 6.89806 3.42687 6.84298 3.51759 6.8054C3.60832 6.76783 3.70555 6.74848 3.80375 6.74848C3.90195 6.74848 3.99918 6.76783 4.08991 6.8054C4.18063 6.84298 4.26306 6.89806 4.3325 6.9675L6.5 9.1275L11.66 3.9675C11.8002 3.82727 11.9904 3.74848 12.1887 3.74848C12.3871 3.74848 12.5773 3.82727 12.7175 3.9675C12.8577 4.10773 12.9365 4.29793 12.9365 4.49625C12.9365 4.69457 12.8577 4.88477 12.7175 5.025L7.025 10.7175C6.95561 10.787 6.8732 10.8422 6.78247 10.8798C6.69174 10.9175 6.59448 10.9368 6.49625 10.9368C6.39802 10.9368 6.30076 10.9175 6.21003 10.8798C6.1193 10.8422 6.03688 10.787 5.9675 10.7175Z" fill="#43C141"/>
</svg>
