<svg width="21" height="21" viewBox="0 0 21 21" fill="none" xmlns="http://www.w3.org/2000/svg">
<path fill-rule="evenodd" clip-rule="evenodd" d="M9.71348 0.811666C9.92352 0.605793 10.2059 0.490479 10.5 0.490479C10.7941 0.490479 11.0765 0.605793 11.2865 0.811666L18.0281 7.55324L20.2753 9.80043C20.4376 10.0168 20.5163 10.2844 20.4972 10.5542C20.478 10.824 20.3622 11.0778 20.1709 11.2691C19.9797 11.4603 19.7258 11.5762 19.4561 11.5954C19.1863 11.6145 18.9186 11.5357 18.7022 11.3735L18.3652 11.0364V18.4521C18.3652 19.0481 18.1284 19.6197 17.707 20.0411C17.2856 20.4625 16.714 20.6993 16.118 20.6993H12.7472C12.4492 20.6993 12.1634 20.5809 11.9527 20.3702C11.742 20.1595 11.6236 19.8737 11.6236 19.5757V16.2049H9.3764V19.5757C9.3764 20.2499 8.92697 20.6993 8.25281 20.6993H4.88202C4.28603 20.6993 3.71445 20.4625 3.29302 20.0411C2.87159 19.6197 2.63483 19.0481 2.63483 18.4521V11.0364L2.29775 11.3735C2.08138 11.5357 1.81373 11.6145 1.54395 11.5954C1.27416 11.5762 1.02034 11.4603 0.829095 11.2691C0.637847 11.0778 0.522001 10.824 0.502828 10.5542C0.483655 10.2844 0.562441 10.0168 0.724721 9.80043L2.97191 7.55324L9.71348 0.811666Z" fill="#3F40E1"/>
</svg>
