<svg width="15" height="18" viewBox="0 0 15 18" fill="none" xmlns="http://www.w3.org/2000/svg">
<path d="M7.25001 0.25C5.4273 0.25215 3.67987 0.977169 2.39102 2.26602C1.10218 3.55486 0.377158 5.3023 0.375007 7.125C0.372824 8.61452 0.85937 10.0636 1.76001 11.25C1.76001 11.25 1.94751 11.4969 1.97813 11.5325L7.25001 17.75L12.5244 11.5294C12.5519 11.4963 12.74 11.25 12.74 11.25L12.7406 11.2481C13.6408 10.0623 14.1271 8.61383 14.125 7.125C14.1229 5.3023 13.3978 3.55486 12.109 2.26602C10.8201 0.977169 9.07271 0.25215 7.25001 0.25ZM7.25001 9.625C6.75555 9.625 6.2722 9.47838 5.86108 9.20367C5.44996 8.92897 5.12953 8.53852 4.94031 8.08171C4.75109 7.62489 4.70158 7.12223 4.79804 6.63727C4.89451 6.15232 5.13261 5.70686 5.48224 5.35723C5.83187 5.0076 6.27733 4.7695 6.76228 4.67304C7.24723 4.57657 7.7499 4.62608 8.20672 4.8153C8.66353 5.00452 9.05398 5.32495 9.32868 5.73607C9.60338 6.1472 9.75001 6.63055 9.75001 7.125C9.74918 7.78779 9.48552 8.42319 9.01686 8.89185C8.5482 9.36052 7.91279 9.62417 7.25001 9.625Z" fill="#A6ACBB"/>
</svg>
