<svg width="20" height="21" viewBox="0 0 20 21" fill="none" xmlns="http://www.w3.org/2000/svg">
<path d="M10 11.7405C9.38194 11.7405 8.77775 11.5572 8.26384 11.2138C7.74994 10.8704 7.3494 10.3824 7.11288 9.81137C6.87635 9.24035 6.81447 8.61201 6.93505 8.00582C7.05563 7.39963 7.35325 6.84281 7.79029 6.40577C8.22733 5.96873 8.78415 5.6711 9.39034 5.55053C9.99654 5.42995 10.6249 5.49183 11.1959 5.72836C11.7669 5.96488 12.255 6.36542 12.5983 6.87932C12.9417 7.39323 13.125 7.99741 13.125 8.61548C13.124 9.44398 12.7945 10.2383 12.2086 10.8241C11.6228 11.4099 10.8285 11.7395 10 11.7405ZM10 6.74048C9.62916 6.74048 9.26665 6.85045 8.95831 7.05647C8.64997 7.2625 8.40964 7.55534 8.26773 7.89795C8.12581 8.24056 8.08868 8.61756 8.16103 8.98127C8.23338 9.34499 8.41195 9.67908 8.67418 9.94131C8.9364 10.2035 9.27049 10.3821 9.63421 10.4545C9.99792 10.5268 10.3749 10.4897 10.7175 10.3478C11.0601 10.2058 11.353 9.96552 11.559 9.65717C11.765 9.34883 11.875 8.98632 11.875 8.61548C11.8745 8.11835 11.6768 7.64173 11.3253 7.2902C10.9738 6.93868 10.4971 6.74098 10 6.74048Z" fill="#3F40E1"/>
<path d="M10 19.2405L4.72751 13.0224C4.65425 12.929 4.58174 12.835 4.51001 12.7405C3.60937 11.5541 3.12282 10.105 3.12501 8.61548C3.12501 6.79212 3.84934 5.04343 5.13865 3.75412C6.42796 2.46481 8.17664 1.74048 10 1.74048C11.8234 1.74048 13.5721 2.46481 14.8614 3.75412C16.1507 5.04343 16.875 6.79212 16.875 8.61548C16.8772 10.1043 16.3909 11.5528 15.4906 12.7386L15.49 12.7405C15.49 12.7405 15.3025 12.9867 15.2744 13.0199L10 19.2405ZM5.50813 11.9874C5.50813 11.9874 5.65376 12.1799 5.68688 12.2211L10 17.308L14.3188 12.2142C14.3463 12.1799 14.4925 11.9861 14.4931 11.9855C15.2289 11.0162 15.6265 9.83237 15.625 8.61548C15.625 7.12364 15.0324 5.69289 13.9775 4.638C12.9226 3.58311 11.4918 2.99048 10 2.99048C8.50816 2.99048 7.07742 3.58311 6.02253 4.638C4.96764 5.69289 4.37501 7.12364 4.37501 8.61548C4.3737 9.83313 4.77174 11.0176 5.50813 11.9874Z" fill="#3F40E1"/>
</svg>
