<svg width="24" height="24" viewBox="0 0 24 24" fill="none" xmlns="http://www.w3.org/2000/svg">
<path d="M11.7615 2.75H3.75C3.48478 2.75 3.23043 2.85536 3.04289 3.04289C2.85536 3.23043 2.75 3.48478 2.75 3.75V20.25C2.75 20.5152 2.85536 20.7696 3.04289 20.9571C3.23043 21.1446 3.48478 21.25 3.75 21.25H20.25C20.5152 21.25 20.7696 21.1446 20.9571 20.9571C21.1446 20.7696 21.25 20.5152 21.25 20.25V3.75C21.25 3.48478 21.1446 3.23043 20.9571 3.04289C20.7696 2.85536 20.5152 2.75 20.25 2.75H17.776" stroke="#109AE8" stroke-linecap="round" stroke-linejoin="round"/>
<path d="M17.395 12.529L21.25 11.935M2.75 14.786L12.66 13.2585M8.954 13.83L7.084 2.75M14.769 1.6835C14.1416 1.6835 13.5204 1.80708 12.9408 2.04718C12.3612 2.28728 11.8346 2.63919 11.391 3.08283C10.9474 3.52647 10.5955 4.05314 10.3555 4.63277C10.1154 5.2124 9.99193 5.83364 9.992 6.461C9.992 10.1995 13.6485 14.706 14.5955 15.81C14.6227 15.8419 14.6566 15.8675 14.6947 15.8849C14.7328 15.9024 14.7743 15.9114 14.8162 15.9112C14.8581 15.911 14.8995 15.9016 14.9375 15.8838C14.9754 15.866 15.0091 15.8401 15.036 15.808C15.967 14.7 19.546 10.197 19.546 6.461C19.5461 5.83364 19.4226 5.2124 19.1825 4.63277C18.9425 4.05314 18.5906 3.52647 18.147 3.08283C17.7034 2.63919 17.1768 2.28728 16.5972 2.04718C16.0176 1.80708 15.3964 1.6835 14.769 1.6835ZM14.769 8.246C14.416 8.246 14.0708 8.14131 13.7773 7.94518C13.4838 7.74904 13.255 7.47026 13.1199 7.14409C12.9848 6.81793 12.9494 6.45902 13.0183 6.11277C13.0872 5.76651 13.2572 5.44845 13.5068 5.19882C13.7565 4.94918 14.0745 4.77917 14.4208 4.7103C14.767 4.64143 15.1259 4.67677 15.4521 4.81188C15.7783 4.94698 16.057 5.17577 16.2532 5.46931C16.4493 5.76285 16.554 6.10796 16.554 6.461C16.554 6.69541 16.5078 6.92753 16.4181 7.14409C16.3284 7.36066 16.1969 7.55743 16.0312 7.72319C15.8654 7.88894 15.6687 8.02042 15.4521 8.11013C15.2355 8.19983 15.0034 8.246 14.769 8.246Z" stroke="#109AE8" stroke-linecap="round" stroke-linejoin="round"/>
</svg>
