<svg width="81" height="81" viewBox="0 0 81 81" fill="none" xmlns="http://www.w3.org/2000/svg">
<path fill-rule="evenodd" clip-rule="evenodd" d="M37.9643 0.575004L36.0343 0.775004C26.6693 1.71 17.2343 6.54 10.8543 13.67C3.79933 21.555 0.214333 31.34 0.544333 41.765C1.11933 59.77 13.4943 75.015 31.0493 79.355C36.2179 80.6031 41.5829 80.8127 46.8331 79.9715C52.0833 79.1304 57.1143 77.2553 61.6343 74.455C70.5232 68.9166 76.8854 60.113 79.3543 49.935C80.2143 46.43 80.4143 44.645 80.4143 40.5C80.4143 36.355 80.2143 34.57 79.3543 31.065C75.3943 14.89 62.0743 2.99 45.4993 0.820004C44.0793 0.635004 38.9143 0.470004 37.9643 0.575004ZM44.7643 8.315C48.2174 8.75771 51.574 9.76621 54.6993 11.3C58.1893 13 60.5993 14.73 63.4343 17.565C66.0352 20.0725 68.1581 23.0324 69.6993 26.3C71.9243 30.875 72.9293 35.29 72.9293 40.5C72.9977 45.4741 71.8657 50.3914 69.6293 54.835C68.7693 56.59 67.0343 59.405 66.2243 60.36L65.9493 60.685L43.1343 37.865L20.3143 15.05L20.6393 14.775C21.5943 13.965 24.4093 12.23 26.1643 11.37C31.9204 8.51799 38.3984 7.454 44.7643 8.315ZM37.8993 43.17L60.6993 65.975L60.3643 66.24C58.6205 67.5278 56.7706 68.6652 54.8343 69.64C51.7014 71.1731 48.3501 72.2121 44.8993 72.72C42.7793 73.045 38.2193 73.045 36.0993 72.72C26.3593 71.24 18.1393 65.925 12.9643 57.755C11.6914 55.6445 10.6296 53.4138 9.79433 51.095C7.83525 45.3226 7.50824 39.1214 8.84933 33.175C9.87835 28.8752 11.7401 24.8187 14.3293 21.235C14.6793 20.76 14.9943 20.37 15.0343 20.37C15.0693 20.37 25.3593 30.63 37.8993 43.17Z" fill="#A6ACBB" fill-opacity="0.5"/>
</svg>
