<svg width="16" height="21" viewBox="0 0 16 21" fill="none" xmlns="http://www.w3.org/2000/svg">
<path fill-rule="evenodd" clip-rule="evenodd" d="M9.00018 1.49048C9.00018 0.938194 8.55247 0.490479 8.00018 0.490479C7.4479 0.490479 7.00018 0.938194 7.00018 1.49048V2.24048H6.44277C4.21769 2.24048 2.3761 3.97049 2.2372 6.19122L2.0162 9.72468C1.93194 11.0719 1.47965 12.3701 0.708587 13.4781C0.011905 14.4791 0.632125 15.8617 1.84306 16.007L5.25018 16.4159V17.4905C5.25018 19.0093 6.4814 20.2405 8.00018 20.2405C9.51897 20.2405 10.7502 19.0093 10.7502 17.4905V16.4159L14.1573 16.007C15.3682 15.8617 15.9885 14.4791 15.2918 13.4781C14.5207 12.3701 14.0684 11.0719 13.9842 9.72468L13.7632 6.19122C13.6243 3.97049 11.7827 2.24048 9.55759 2.24048H9.00018V1.49048ZM6.75018 17.4905C6.75018 18.1808 7.30983 18.7405 8.00018 18.7405C8.69054 18.7405 9.25018 18.1808 9.25018 17.4905V16.7405H6.75018V17.4905Z" fill="#A6ACBB"/>
</svg>
