<svg width="22" height="22" viewBox="0 0 22 22" fill="none" xmlns="http://www.w3.org/2000/svg">
<path d="M13.75 8.24992H16.5M13.75 10.9999H16.5M13.75 13.7499H16.5M11 14.6666C10.725 14.1166 10.0833 13.7499 9.53333 13.7499H6.96667C6.325 13.7499 5.775 14.1166 5.5 14.6666M3.66667 4.58325H18.3333C18.8833 4.58325 19.25 4.94992 19.25 5.49992V16.4999C19.25 17.0499 18.8833 17.4166 18.3333 17.4166H3.66667C3.42355 17.4166 3.19039 17.32 3.01849 17.1481C2.84658 16.9762 2.75 16.743 2.75 16.4999V5.49992C2.75 4.94992 3.11667 4.58325 3.66667 4.58325ZM10.0833 9.16659C10.0833 9.65282 9.89018 10.1191 9.54636 10.4629C9.20255 10.8068 8.73623 10.9999 8.25 10.9999C7.76377 10.9999 7.29745 10.8068 6.95364 10.4629C6.60982 10.1191 6.41667 9.65282 6.41667 9.16659C6.41667 8.68035 6.60982 8.21404 6.95364 7.87022C7.29745 7.52641 7.76377 7.33325 8.25 7.33325C8.73623 7.33325 9.20255 7.52641 9.54636 7.87022C9.89018 8.21404 10.0833 8.68035 10.0833 9.16659Z" stroke="#3F40E1" stroke-width="1.2" stroke-linecap="round" stroke-linejoin="round"/>
</svg>
