<svg width="22" height="22" viewBox="0 0 22 22" fill="none" xmlns="http://www.w3.org/2000/svg">
<path d="M19.0429 13.7759L14.9832 11.9566C14.7993 11.8778 14.5986 11.8461 14.3993 11.8644C14.2 11.8827 14.0085 11.9504 13.842 12.0614C13.8251 12.0723 13.809 12.0843 13.7938 12.0975L11.672 13.9022C11.65 13.9142 11.6255 13.9209 11.6005 13.9218C11.5754 13.9227 11.5505 13.9178 11.5277 13.9074C10.1638 13.2491 8.75103 11.8449 8.09017 10.5C8.07916 10.4775 8.07344 10.4528 8.07344 10.4278C8.07344 10.4027 8.07916 10.3781 8.09017 10.3556L9.90087 8.20714C9.91386 8.19124 9.92591 8.1746 9.93696 8.1573C10.0464 7.99015 10.1126 7.79838 10.1294 7.59928C10.1462 7.40018 10.1131 7.20004 10.0332 7.01691L8.22681 2.96409C8.12422 2.72485 7.94681 2.52533 7.7212 2.39548C7.49559 2.26564 7.23395 2.21246 6.97556 2.24394C5.85255 2.39158 4.82172 2.94307 4.0757 3.79537C3.32969 4.64766 2.91953 5.74244 2.92189 6.87511C2.92189 13.604 8.3961 19.0782 15.125 19.0782C16.2576 19.0804 17.3523 18.6702 18.2046 17.9242C19.0568 17.1782 19.6084 16.1475 19.7562 15.0246C19.7876 14.7674 19.7351 14.5069 19.6066 14.2819C19.4781 14.057 19.2804 13.8795 19.0429 13.7759ZM15.125 18.047C8.96501 18.047 3.95314 13.0351 3.95314 6.87511C3.95026 5.99333 4.26853 5.14067 4.84847 4.47643C5.42841 3.81219 6.23035 3.38183 7.10446 3.26574H7.12423C7.15886 3.26638 7.19249 3.27748 7.22071 3.29757C7.24892 3.31765 7.27041 3.3458 7.28235 3.37831L9.09563 7.42683C9.10598 7.44934 9.11133 7.47382 9.11133 7.49859C9.11133 7.52336 9.10598 7.54784 9.09563 7.57034L7.28149 9.72394C7.26796 9.73931 7.25561 9.75569 7.24454 9.77292C7.13102 9.94622 7.06418 10.1459 7.05047 10.3526C7.03677 10.5593 7.07668 10.7661 7.16634 10.9528C7.9286 12.5135 9.50126 14.0741 11.0791 14.8364C11.2669 14.9255 11.4747 14.9645 11.6821 14.9494C11.8895 14.9343 12.0894 14.8658 12.2624 14.7504C12.2788 14.7393 12.2951 14.7272 12.3106 14.7143L14.4315 12.9096C14.4524 12.8984 14.4756 12.8918 14.4993 12.8903C14.523 12.8888 14.5468 12.8925 14.569 12.901L18.6295 14.7203C18.6627 14.7345 18.6906 14.7587 18.7093 14.7895C18.7279 14.8204 18.7364 14.8563 18.7335 14.8922C18.618 15.7667 18.1881 16.5693 17.524 17.1499C16.8599 17.7304 16.0071 18.0494 15.125 18.047Z" fill="#3F40E1"/>
</svg>
