<svg width="16" height="16" viewBox="0 0 16 16" fill="none" xmlns="http://www.w3.org/2000/svg">
<path fill-rule="evenodd" clip-rule="evenodd" d="M4.66667 3.83333C4.66667 2.94928 5.01786 2.10143 5.64298 1.47631C6.2681 0.851189 7.11594 0.5 8 0.5C8.88406 0.5 9.7319 0.851189 10.357 1.47631C10.9821 2.10143 11.3333 2.94928 11.3333 3.83333C11.3333 4.71739 10.9821 5.56523 10.357 6.19036C9.7319 6.81548 8.88406 7.16667 8 7.16667C7.11594 7.16667 6.2681 6.81548 5.64298 6.19036C5.01786 5.56523 4.66667 4.71739 4.66667 3.83333ZM4.66667 8.83333C3.5616 8.83333 2.50179 9.27232 1.72039 10.0537C0.938987 10.8351 0.5 11.8949 0.5 13C0.5 13.663 0.763392 14.2989 1.23223 14.7678C1.70107 15.2366 2.33696 15.5 3 15.5H13C13.663 15.5 14.2989 15.2366 14.7678 14.7678C15.2366 14.2989 15.5 13.663 15.5 13C15.5 11.8949 15.061 10.8351 14.2796 10.0537C13.4982 9.27232 12.4384 8.83333 11.3333 8.83333H4.66667Z" fill="white"/>
</svg>
