<svg width="22" height="22" viewBox="0 0 22 22" fill="none" xmlns="http://www.w3.org/2000/svg">
<path d="M11.8594 15.4688C11.8594 15.6387 11.809 15.8049 11.7145 15.9462C11.6201 16.0875 11.4859 16.1977 11.3289 16.2627C11.1718 16.3278 10.9991 16.3448 10.8323 16.3116C10.6656 16.2785 10.5125 16.1966 10.3923 16.0764C10.2721 15.9562 10.1903 15.8031 10.1571 15.6364C10.124 15.4697 10.141 15.2969 10.206 15.1399C10.2711 14.9829 10.3812 14.8486 10.5226 14.7542C10.6639 14.6598 10.83 14.6094 11 14.6094C11.2279 14.6094 11.4465 14.6999 11.6077 14.8611C11.7688 15.0222 11.8594 15.2408 11.8594 15.4688ZM11 6.35938C9.19532 6.35938 7.73438 7.66992 7.73438 9.28125V9.625C7.73438 9.76175 7.7887 9.8929 7.8854 9.9896C7.9821 10.0863 8.11325 10.1406 8.25 10.1406C8.38676 10.1406 8.51791 10.0863 8.61461 9.9896C8.7113 9.8929 8.76563 9.76175 8.76563 9.625V9.28125C8.76563 8.23883 9.76766 7.39062 11 7.39062C12.2323 7.39062 13.2344 8.23883 13.2344 9.28125C13.2344 10.3237 12.2323 11.1719 11 11.1719C10.8633 11.1719 10.7321 11.2262 10.6354 11.3229C10.5387 11.4196 10.4844 11.5507 10.4844 11.6875V12.375C10.4844 12.5118 10.5387 12.6429 10.6354 12.7396C10.7321 12.8363 10.8633 12.8906 11 12.8906C11.1368 12.8906 11.2679 12.8363 11.3646 12.7396C11.4613 12.6429 11.5156 12.5118 11.5156 12.375V12.167C13.072 11.9453 14.2656 10.7353 14.2656 9.28125C14.2656 7.66992 12.8047 6.35938 11 6.35938ZM19.7656 11C19.7656 12.7337 19.2515 14.4284 18.2884 15.8699C17.3252 17.3114 15.9562 18.4349 14.3545 19.0984C12.7528 19.7618 10.9903 19.9354 9.28992 19.5972C7.58955 19.259 6.02767 18.4241 4.80177 17.1982C3.57588 15.9723 2.74103 14.4105 2.40281 12.7101C2.06458 11.0097 2.23817 9.24725 2.90162 7.64554C3.56507 6.04383 4.68858 4.67483 6.13008 3.71165C7.57158 2.74847 9.26633 2.23438 11 2.23438C13.324 2.2371 15.5519 3.1615 17.1952 4.80478C18.8385 6.44806 19.7629 8.67605 19.7656 11ZM18.7344 11C18.7344 9.47029 18.2808 7.97492 17.4309 6.70301C16.581 5.4311 15.3731 4.43977 13.9598 3.85437C12.5465 3.26897 10.9914 3.11581 9.4911 3.41424C7.99078 3.71267 6.61265 4.4493 5.53097 5.53097C4.4493 6.61264 3.71268 7.99078 3.41424 9.4911C3.11581 10.9914 3.26898 12.5465 3.85437 13.9598C4.43977 15.3731 5.4311 16.581 6.70302 17.4309C7.97493 18.2808 9.47029 18.7344 11 18.7344C13.0506 18.7321 15.0165 17.9165 16.4665 16.4665C17.9165 15.0165 18.7321 13.0506 18.7344 11Z" fill="#3F40E1"/>
</svg>
