<svg width="16" height="18" viewBox="0 0 16 18" fill="none" xmlns="http://www.w3.org/2000/svg">
<path d="M3.42393 1.34302C3.52636 1.22076 3.57678 1.06321 3.56436 0.904196C3.55193 0.745179 3.47766 0.597373 3.35748 0.492506C3.2373 0.38764 3.08079 0.334074 2.92156 0.343308C2.76232 0.352542 2.61306 0.42384 2.5058 0.541895L1.45605 1.7444C0.8608 2.42654 0.524307 3.29625 0.505427 4.2014L0.459115 6.41058C0.457461 6.49061 0.471585 6.57017 0.500681 6.64474C0.529777 6.71931 0.573275 6.78741 0.628691 6.84517C0.684107 6.90292 0.750357 6.94919 0.823657 6.98135C0.896957 7.0135 0.975871 7.0309 1.0559 7.03255C1.13592 7.03421 1.21549 7.02008 1.29005 6.99099C1.36462 6.96189 1.43272 6.91839 1.49048 6.86298C1.54823 6.80756 1.59451 6.74131 1.62666 6.66801C1.65881 6.59471 1.67621 6.51579 1.67786 6.43577L1.72336 4.2274C1.7364 3.60805 1.96677 3.013 2.37418 2.54633L3.42393 1.34302Z" fill="#3F40E1"/>
<path fill-rule="evenodd" clip-rule="evenodd" d="M3.26814 5.63857C3.32271 4.76931 3.7065 3.95352 4.34139 3.35727C4.97628 2.76102 5.81454 2.42914 6.68552 2.4292H7.13808V1.81982C7.13808 1.60434 7.22368 1.39767 7.37606 1.2453C7.52843 1.09293 7.73509 1.00732 7.95058 1.00732C8.16607 1.00732 8.37273 1.09293 8.5251 1.2453C8.67748 1.39767 8.76308 1.60434 8.76308 1.81982V2.4292H9.21564C10.0866 2.42914 10.9249 2.76102 11.5598 3.35727C12.1947 3.95352 12.5785 4.76931 12.633 5.63857L12.8126 8.50995C12.881 9.60476 13.2486 10.6598 13.8753 11.5601C14.0048 11.7462 14.0839 11.9626 14.105 12.1884C14.126 12.4141 14.0883 12.6415 13.9955 12.8483C13.9027 13.0552 13.7579 13.2345 13.5752 13.3688C13.3926 13.5031 13.1783 13.5879 12.9531 13.6149L10.185 13.9464V14.8198C10.185 15.4124 9.94955 15.9807 9.53052 16.3998C9.1115 16.8188 8.54317 17.0542 7.95058 17.0542C7.35799 17.0542 6.78967 16.8188 6.37064 16.3998C5.95161 15.9807 5.71621 15.4124 5.71621 14.8198V13.9464L2.94802 13.6141C2.72303 13.587 2.50887 13.5023 2.32633 13.368C2.14379 13.2337 1.99909 13.0545 1.90627 12.8478C1.81346 12.641 1.77569 12.4138 1.79664 12.1882C1.81759 11.9626 1.89655 11.7462 2.02583 11.5601C2.65251 10.6598 3.02011 9.60475 3.08858 8.50995L3.26814 5.63857ZM6.68552 3.64795C6.12455 3.64788 5.58464 3.86161 5.17571 4.24563C4.76679 4.62965 4.51959 5.15508 4.48446 5.71495L4.30571 8.58633C4.22311 9.90337 3.78077 11.1725 3.02683 12.2556C3.01746 12.269 3.01173 12.2847 3.0102 12.301C3.00867 12.3173 3.01139 12.3338 3.0181 12.3488C3.02481 12.3637 3.03527 12.3767 3.04848 12.3864C3.06168 12.3962 3.07718 12.4023 3.09346 12.4043L6.12977 12.7691C7.33958 12.9137 8.56158 12.9137 9.77139 12.7691L12.8077 12.4043C12.824 12.4023 12.8395 12.3962 12.8527 12.3864C12.8659 12.3767 12.8764 12.3637 12.8831 12.3488C12.8898 12.3338 12.8925 12.3173 12.891 12.301C12.8894 12.2847 12.8837 12.269 12.8743 12.2556C12.1206 11.1724 11.6786 9.9033 11.5963 8.58633L11.4167 5.71495C11.3816 5.15508 11.1344 4.62965 10.7254 4.24563C10.3165 3.86161 9.77661 3.64788 9.21564 3.64795H6.68552ZM7.95058 15.8355C7.38996 15.8355 6.93496 15.3805 6.93496 14.8198V14.2105H8.96621V14.8198C8.96621 15.3805 8.51121 15.8355 7.95058 15.8355Z" fill="#3F40E1"/>
<path d="M12.5348 0.483393C12.4131 0.589647 12.3385 0.739892 12.3276 0.901093C12.3166 1.06229 12.3701 1.22125 12.4763 1.34302L13.5261 2.54552C13.9334 3.01251 14.1634 3.60787 14.1761 4.22739L14.2224 6.43496C14.2257 6.59657 14.2931 6.75024 14.4098 6.86216C14.5264 6.97408 14.6827 7.03508 14.8443 7.03174C15.006 7.0284 15.1596 6.96099 15.2715 6.84435C15.3835 6.72771 15.4445 6.57138 15.4411 6.40977L15.3948 4.20139C15.3759 3.29624 15.0394 2.42654 14.4442 1.74439L13.3944 0.541893C13.2882 0.420171 13.1379 0.34563 12.9767 0.334659C12.8155 0.323689 12.6566 0.377188 12.5348 0.483393Z" fill="#3F40E1"/>
</svg>
