<svg width="34" height="38" viewBox="0 0 34 38" fill="none" xmlns="http://www.w3.org/2000/svg">
<path d="M30.5 17.5072V7.32383C30.5 6.43978 30.1488 5.59193 29.5237 4.96681C28.8986 4.34169 28.0507 3.9905 27.1667 3.9905H20.2C19.5 2.05717 17.6667 0.657166 15.5 0.657166C13.3333 0.657166 11.5 2.05717 10.8 3.9905H3.83333C2 3.9905 0.5 5.4905 0.5 7.32383V30.6572C0.5 31.5412 0.851189 32.3891 1.47631 33.0142C2.10143 33.6393 2.94928 33.9905 3.83333 33.9905H14.0167C16.1167 36.0572 18.9833 37.3238 22.1667 37.3238C28.6167 37.3238 33.8333 32.1072 33.8333 25.6572C33.8333 22.4738 32.5667 19.6072 30.5 17.5072ZM15.5 3.9905C16.4167 3.9905 17.1667 4.7405 17.1667 5.65717C17.1667 6.57383 16.4167 7.32383 15.5 7.32383C14.5833 7.32383 13.8333 6.57383 13.8333 5.65717C13.8333 4.7405 14.5833 3.9905 15.5 3.9905ZM5.5 10.6572H25.5V13.9905H5.5V10.6572ZM10.6333 27.3238H5.5V23.9905H10.6333C10.55 24.5405 10.5 25.0905 10.5 25.6572C10.5 26.2238 10.55 26.7738 10.6333 27.3238ZM5.5 20.6572V17.3238H14.0167C13 18.2738 12.2333 19.4072 11.6333 20.6572H5.5ZM22.1667 33.9905C17.5667 33.9905 13.8333 30.2572 13.8333 25.6572C13.8333 21.0572 17.5667 17.3238 22.1667 17.3238C26.7667 17.3238 30.5 21.0572 30.5 25.6572C30.5 30.2572 26.7667 33.9905 22.1667 33.9905ZM23 26.0738L27.7667 28.8905L26.5167 30.9238L20.5 27.3238V18.9905H23V26.0738Z" fill="#A6ACBB"/>
</svg>
