<svg width="16" height="15" viewBox="0 0 16 15" fill="none" xmlns="http://www.w3.org/2000/svg">
<path d="M7.9925 -0.00952148C3.8525 -0.00952148 0.5 3.35048 0.5 7.49048C0.5 11.6305 3.8525 14.9905 7.9925 14.9905C12.14 14.9905 15.5 11.6305 15.5 7.49048C15.5 3.35048 12.14 -0.00952148 7.9925 -0.00952148ZM8 13.4905C4.685 13.4905 2 10.8055 2 7.49048C2 4.17548 4.685 1.49048 8 1.49048C11.315 1.49048 14 4.17548 14 7.49048C14 10.8055 11.315 13.4905 8 13.4905ZM7.835 3.74048H7.79C7.49 3.74048 7.25 3.98048 7.25 4.28048V7.82048C7.25 8.08298 7.385 8.33048 7.6175 8.46548L10.73 10.333C10.985 10.483 11.315 10.408 11.465 10.153C11.5027 10.0922 11.5277 10.0246 11.5387 9.95395C11.5496 9.88334 11.5462 9.81124 11.5288 9.74196C11.5113 9.67267 11.48 9.60762 11.4368 9.55067C11.3937 9.49372 11.3395 9.44605 11.2775 9.41048L8.375 7.68548V4.28048C8.375 3.98048 8.135 3.74048 7.835 3.74048Z" fill="white"/>
</svg>
