<svg width="19" height="19" viewBox="0 0 19 19" fill="none" xmlns="http://www.w3.org/2000/svg">
<path fill-rule="evenodd" clip-rule="evenodd" d="M9.5 0.5C9.8 0.5 10.1 0.6 10.3 0.9L14.3 5.9C14.3788 6.00506 14.4361 6.12461 14.4687 6.25182C14.5013 6.37903 14.5085 6.51142 14.49 6.64142C14.4714 6.77142 14.4274 6.89649 14.3605 7.00949C14.2936 7.12249 14.2051 7.22121 14.1 7.3C13.9949 7.37879 13.8754 7.43612 13.7482 7.46871C13.621 7.50131 13.4886 7.50852 13.3586 7.48995C13.2286 7.47138 13.1035 7.42738 12.9905 7.36047C12.8775 7.29357 12.7788 7.20506 12.7 7.1L10.5 4.5V11.5C10.5 11.7652 10.3946 12.0196 10.2071 12.2071C10.0196 12.3946 9.76522 12.5 9.5 12.5C9.23478 12.5 8.98043 12.3946 8.79289 12.2071C8.60536 12.0196 8.5 11.7652 8.5 11.5V4.4L6.3 7.1C6.22121 7.20506 6.12249 7.29357 6.00949 7.36047C5.89649 7.42738 5.77142 7.47138 5.64142 7.48995C5.51142 7.50852 5.37903 7.50131 5.25182 7.46871C5.12461 7.43612 5.00506 7.37879 4.9 7.3C4.79494 7.22121 4.70643 7.12249 4.63953 7.00949C4.57262 6.89649 4.52862 6.77142 4.51005 6.64142C4.49148 6.51142 4.49869 6.37903 4.53129 6.25182C4.56388 6.12461 4.62121 6.00506 4.7 5.9L8.7 0.9C8.9 0.6 9.2 0.5 9.5 0.5ZM6.5 11.5V10.5H2.5C1.96957 10.5 1.46086 10.7107 1.08579 11.0858C0.710714 11.4609 0.5 11.9696 0.5 12.5V16.5C0.5 17.6 1.4 18.5 2.5 18.5H16.5C17.0304 18.5 17.5391 18.2893 17.9142 17.9142C18.2893 17.5391 18.5 17.0304 18.5 16.5V12.5C18.5 11.9696 18.2893 11.4609 17.9142 11.0858C17.5391 10.7107 17.0304 10.5 16.5 10.5H12.5V11.5C12.5 12.2956 12.1839 13.0587 11.6213 13.6213C11.0587 14.1839 10.2956 14.5 9.5 14.5C8.70435 14.5 7.94129 14.1839 7.37868 13.6213C6.81607 13.0587 6.5 12.2956 6.5 11.5ZM14.5 13.5C14.2348 13.5 13.9804 13.6054 13.7929 13.7929C13.6054 13.9804 13.5 14.2348 13.5 14.5C13.5 14.7652 13.6054 15.0196 13.7929 15.2071C13.9804 15.3946 14.2348 15.5 14.5 15.5C14.7652 15.5 15.0196 15.3946 15.2071 15.2071C15.3946 15.0196 15.5 14.7652 15.5 14.5C15.5 14.2348 15.3946 13.9804 15.2071 13.7929C15.0196 13.6054 14.7652 13.5 14.5 13.5Z" fill="#8484A1"/>
</svg>
