<svg width="19" height="19" viewBox="0 0 19 19" fill="none" xmlns="http://www.w3.org/2000/svg">
<path d="M9.97657 0.5C14.9473 0.5 18.9766 4.5293 18.9766 9.49999C18.9766 14.4707 14.9473 18.5 9.97657 18.5C8.38607 18.5026 6.82356 18.0816 5.44957 17.2805L0.980175 18.5L2.19697 14.0288C1.39516 12.6544 0.973918 11.0912 0.976575 9.49999C0.976575 4.5293 5.00587 0.5 9.97657 0.5ZM6.90937 5.27L6.72937 5.2772C6.61284 5.28429 6.49895 5.31491 6.39457 5.3672C6.29694 5.42248 6.20782 5.4916 6.12997 5.5724C6.02197 5.6741 5.96077 5.7623 5.89507 5.8478C5.56218 6.28061 5.38295 6.81198 5.38567 7.358C5.38747 7.799 5.50267 8.22829 5.68267 8.62969C6.05077 9.44149 6.65647 10.301 7.45567 11.0975C7.64827 11.2892 7.83727 11.4818 8.04067 11.6609C9.03372 12.5352 10.2171 13.1657 11.4967 13.5023L12.0079 13.5806C12.1744 13.5896 12.3409 13.577 12.5083 13.5689C12.7704 13.5554 13.0263 13.4844 13.258 13.361C13.3758 13.3003 13.4908 13.2342 13.6027 13.163C13.6027 13.163 13.6414 13.1378 13.7152 13.082C13.8367 12.992 13.9114 12.9281 14.0122 12.8228C14.0869 12.7454 14.1517 12.6545 14.2012 12.551C14.2714 12.4043 14.3416 12.1244 14.3704 11.8913C14.392 11.7131 14.3857 11.6159 14.383 11.5556C14.3794 11.4593 14.2993 11.3594 14.212 11.3171L13.6882 11.0822C13.6882 11.0822 12.9052 10.7411 12.4264 10.5233C12.3763 10.5014 12.3226 10.4889 12.268 10.4864C12.2064 10.4801 12.1442 10.487 12.0855 10.5067C12.0268 10.5264 11.973 10.5585 11.9278 10.6007C11.9233 10.5989 11.863 10.6502 11.2123 11.4386C11.1749 11.4888 11.1235 11.5267 11.0645 11.5475C11.0055 11.5684 10.9417 11.5712 10.8811 11.5556C10.8224 11.5399 10.765 11.52 10.7092 11.4962C10.5976 11.4494 10.5589 11.4314 10.4824 11.399C9.96583 11.1736 9.48759 10.869 9.06487 10.4963C8.95147 10.3973 8.84617 10.2893 8.73817 10.1849C8.3841 9.8458 8.07552 9.4622 7.82017 9.04369L7.76707 8.95819C7.72893 8.90074 7.69809 8.83877 7.67527 8.77369C7.64107 8.64139 7.73017 8.53519 7.73017 8.53519C7.73017 8.53519 7.94887 8.29579 8.05057 8.16619C8.14957 8.04019 8.23327 7.9178 8.28727 7.8305C8.39347 7.6595 8.42677 7.484 8.37097 7.3481C8.11897 6.7325 7.85797 6.1196 7.58977 5.5112C7.53667 5.3906 7.37917 5.3042 7.23607 5.2871C7.18747 5.2817 7.13887 5.2763 7.09027 5.2727C6.96941 5.26669 6.84829 5.26789 6.72757 5.2763L6.90937 5.27Z" fill="#43C141"/>
</svg>
